<?xml version="1.0" encoding="utf-8"?>
<!-- Generator: Adobe Illustrator 23.0.3, SVG Export Plug-In . SVG Version: 6.00 Build 0)  -->
<svg version="1.1" id="Layer_1" xmlns="http://www.w3.org/2000/svg" xmlns:xlink="http://www.w3.org/1999/xlink" x="0px" y="0px"
	 viewBox="0 0 229.48 90.19" style="enable-background:new 0 0 229.48 90.19;" xml:space="preserve">
<style type="text/css">
	.st0{fill:#FFFFFF;stroke:#F7931E;stroke-miterlimit:10;}
	.st1{opacity:0.3;}
	.st2{fill:none;stroke:#000000;stroke-width:0.75;}
	.st3{fill:none;stroke:#000000;stroke-width:3;stroke-linecap:round;stroke-miterlimit:10;}
	.st4{fill:none;stroke:#000000;stroke-width:2;}
	.st5{fill:none;stroke:#000000;stroke-width:2;stroke-linecap:round;}
	.st6{fill:none;stroke:#000000;stroke-width:0.5;stroke-miterlimit:10;}
	.st7{fill:none;stroke:#000000;stroke-miterlimit:10;}
	.st8{fill:none;stroke:#000000;stroke-width:0.5;stroke-miterlimit:10;stroke-dasharray:10.6527,10.6527;}
	.st9{fill:none;stroke:#000000;stroke-width:0.5;stroke-miterlimit:10;stroke-dasharray:9.5918,9.5918;}
	.st10{fill:none;stroke:#000000;stroke-width:0.5;stroke-miterlimit:10;stroke-dasharray:11.9047,11.9047;}
	.st11{fill:none;stroke:#000000;stroke-width:0.5;stroke-miterlimit:10;stroke-dasharray:11.3762,11.3762;}
	.st12{fill:none;stroke:#000000;stroke-width:0.5;stroke-miterlimit:10;stroke-dasharray:10.8468,10.8468;}
	.st13{fill:none;stroke:#000000;stroke-width:0.5;stroke-miterlimit:10;stroke-dasharray:12.5569,12.5569;}
	.st14{fill:#FFFFFF;stroke:#000000;stroke-width:0.5;stroke-miterlimit:10;}
	.st15{fill:none;stroke:#000000;stroke-width:0.25;stroke-miterlimit:10;}
	.st16{fill:none;stroke:#000000;stroke-width:0.25;stroke-miterlimit:10;stroke-dasharray:10.6527,10.6527;}
	.st17{fill:none;stroke:#000000;stroke-width:0.25;stroke-miterlimit:10;stroke-dasharray:9.5918,9.5918;}
	.st18{fill:none;stroke:#000000;stroke-width:0.25;stroke-miterlimit:10;stroke-dasharray:11.9047,11.9047;}
	.st19{fill:none;stroke:#000000;stroke-width:0.25;stroke-miterlimit:10;stroke-dasharray:11.3762,11.3762;}
	.st20{fill:none;stroke:#000000;stroke-width:0.25;stroke-miterlimit:10;stroke-dasharray:10.8468,10.8468;}
	.st21{fill:none;stroke:#000000;stroke-width:0.25;stroke-miterlimit:10;stroke-dasharray:12.5569,12.5569;}
	.st22{fill:none;stroke:#000000;stroke-width:0.25;stroke-miterlimit:10;stroke-dasharray:11.237,11.237;}
	.st23{fill:none;stroke:#000000;stroke-width:0.25;stroke-miterlimit:10;stroke-dasharray:10.0763,10.0763;}
	.st24{fill:none;stroke:#000000;stroke-width:0.25;stroke-miterlimit:10;stroke-dasharray:10.4635,10.4635;}
	.st25{fill:none;stroke:#000000;stroke-width:0.25;stroke-miterlimit:10;stroke-dasharray:10.2079,10.2079;}
	.st26{fill:none;stroke:#000000;stroke-width:0.25;stroke-miterlimit:10;stroke-dasharray:10.2311,10.2311;}
	.st27{fill:none;stroke:#000000;stroke-width:0.25;stroke-miterlimit:10;stroke-dasharray:10.429,10.429;}
	.st28{fill:none;stroke:#000000;stroke-width:0.25;stroke-miterlimit:10;stroke-dasharray:8.0135,8.0135;}
	.st29{fill:none;stroke:#000000;stroke-width:0.25;stroke-miterlimit:10;stroke-dasharray:12.1894,12.1894;}
	.st30{fill:none;stroke:#000000;stroke-width:0.25;stroke-miterlimit:10;stroke-dasharray:11.7342,11.7342;}
	.st31{fill:none;stroke:#000000;stroke-width:0.25;stroke-miterlimit:10;stroke-dasharray:6.6473,6.6473;}
	.st32{fill:none;stroke:#000000;stroke-width:0.5;}
	.st33{fill:none;stroke:#000000;stroke-width:0.5;stroke-dasharray:13.4871,13.4871;}
	.st34{fill:none;stroke:#000000;stroke-width:0.5;stroke-dasharray:6.0196,6.0196;}
	.st35{fill:none;stroke:#000000;stroke-width:0.5;stroke-dasharray:13.1735,13.1735;}
	.st36{fill:none;stroke:#000000;stroke-width:0.5;stroke-dasharray:13.0961,13.0961;}
	.st37{fill:none;stroke:#000000;stroke-width:0.5;stroke-dasharray:11.2544,11.2544;}
	.st38{fill:none;stroke:#000000;stroke-width:0.5;stroke-dasharray:6.4987,6.4987;}
	.st39{fill:none;stroke:#000000;stroke-width:0.5;stroke-dasharray:7.5023,7.5023;}
	.st40{fill:none;stroke:#000000;stroke-width:0.5;stroke-dasharray:7.1549,7.1549;}
	.st41{clip-path:url(#SVGID_2_);}
	.st42{clip-path:url(#SVGID_4_);}
	.st43{fill:url(#SVGID_7_);}
	.st44{fill:#0000FF;}
	.st45{fill:url(#SVGID_8_);}
	.st46{fill:url(#SVGID_9_);}
	.st47{fill:#341A4F;}
	.st48{fill:url(#SVGID_10_);}
	.st49{fill:#333333;}
	.st50{fill:url(#SVGID_11_);}
	.st51{fill:url(#SVGID_12_);}
	.st52{fill:#7F0602;}
	.st53{fill:url(#SVGID_13_);}
	.st54{fill:url(#SVGID_14_);}
	.st55{fill:url(#SVGID_15_);}
	.st56{fill:url(#SVGID_16_);}
	.st57{fill:url(#SVGID_17_);}
	.st58{fill:url(#SVGID_18_);}
	.st59{fill:url(#SVGID_19_);}
	.st60{fill:url(#SVGID_20_);}
	.st61{fill:url(#SVGID_21_);}
	.st62{fill:url(#SVGID_22_);}
	.st63{fill:url(#SVGID_23_);}
	.st64{fill:url(#SVGID_24_);}
	.st65{fill:url(#SVGID_25_);}
	.st66{fill:url(#SVGID_26_);}
	.st67{fill:url(#SVGID_27_);}
	.st68{fill:url(#SVGID_28_);}
	.st69{fill:url(#SVGID_29_);}
	.st70{fill:url(#SVGID_30_);}
	.st71{fill:none;stroke:#000000;stroke-width:3;stroke-miterlimit:10;}
	.st72{fill:url(#SVGID_31_);}
	.st73{fill:url(#SVGID_32_);}
	.st74{fill:url(#SVGID_33_);}
	.st75{fill:url(#SVGID_34_);}
	.st76{fill:none;stroke:#7F0602;stroke-width:3;stroke-miterlimit:10;}
	.st77{fill:none;stroke:#4777EF;stroke-width:3;stroke-miterlimit:10;}
	.st78{fill:none;stroke:#341A4F;stroke-width:3;stroke-miterlimit:10;}
	.st79{fill:url(#SVGID_35_);}
	.st80{fill:none;stroke:#3C0965;stroke-width:3;stroke-miterlimit:10;}
	.st81{fill:none;stroke:#F6B024;stroke-width:4;stroke-miterlimit:10;}
	.st82{fill:none;stroke:#FBD425;stroke-width:3;stroke-miterlimit:10;}
	.st83{fill:url(#SVGID_36_);}
	.st84{fill:none;stroke:#333333;stroke-width:3;stroke-miterlimit:10;}
	.st85{fill:url(#SVGID_37_);}
	.st86{fill:url(#SVGID_38_);}
	.st87{fill:none;stroke:#000000;stroke-width:0.3663;stroke-miterlimit:10;}
	.st88{fill:#500C6C;}
	.st89{fill:url(#SVGID_39_);}
</style>
<g>
	<linearGradient id="SVGID_2_" gradientUnits="userSpaceOnUse" x1="14.0404" y1="42.3313" x2="213.0992" y2="42.3313">
		<stop  offset="0" style="stop-color:#341A4F"/>
		<stop  offset="0.204" style="stop-color:#4777EF"/>
		<stop  offset="0.4067" style="stop-color:#65B787"/>
		<stop  offset="0.6313" style="stop-color:#E0DD37"/>
		<stop  offset="0.7087" style="stop-color:#E6A828"/>
		<stop  offset="0.8313" style="stop-color:#EF5711"/>
		<stop  offset="1" style="stop-color:#7F0602"/>
	</linearGradient>
	<path style="fill:url(#SVGID_2_);" d="M36.3,42.25h14.22c3.33,0,5.84,0.85,7.53,2.54c1.68,1.7,2.52,4.1,2.52,7.2
		s-0.88,5.52-2.63,7.24c-1.75,1.72-4.37,2.59-7.85,2.59h-7.48V72.1H36.3V42.25z M49.96,56.48c1.36,0,2.41-0.39,3.13-1.17
		c0.72-0.78,1.09-1.88,1.09-3.31c0-1.39-0.36-2.47-1.09-3.24c-0.73-0.77-1.77-1.15-3.13-1.15h-7.35v8.87H49.96z M70.93,42.25h7.92
		L90.5,72.1h-6.87l-2.13-5.7H67.93l-2.13,5.7h-6.53L70.93,42.25z M79.5,61.13l-2.83-7.57c-0.23-0.61-0.57-1.62-1-3.04
		c-0.43-1.42-0.72-2.36-0.87-2.83h-0.22c-0.15,0.46-0.44,1.41-0.87,2.83c-0.44,1.42-0.77,2.44-1,3.04l-2.83,7.57H79.5z M93.5,42.25
		h15.83c3.33,0,5.84,0.82,7.53,2.46c1.68,1.64,2.52,3.94,2.52,6.89c0,4.18-1.74,6.96-5.22,8.35l6.09,12.14h-6.83l-5.26-11.14h-8.35
		V72.1H93.5V42.25z M108.77,55.7c1.36,0,2.41-0.36,3.13-1.09c0.72-0.72,1.09-1.73,1.09-3c0-1.28-0.36-2.26-1.09-2.96
		c-0.73-0.7-1.77-1.04-3.13-1.04h-8.96v8.09H108.77z M133.74,42.25h7.92l11.66,29.84h-6.87l-2.13-5.7h-13.57l-2.13,5.7h-6.53
		L133.74,42.25z M142.31,61.13l-2.83-7.57c-0.23-0.61-0.57-1.62-1-3.04c-0.43-1.42-0.72-2.36-0.87-2.83h-0.22
		c-0.15,0.46-0.44,1.41-0.87,2.83c-0.44,1.42-0.77,2.44-1,3.04l-2.83,7.57H142.31z M156.32,42.25h9.83l4.18,16.44
		c0.23,0.81,0.5,2.01,0.8,3.59c0.3,1.58,0.5,2.63,0.59,3.15h0.22c0.09-0.55,0.27-1.63,0.54-3.24c0.28-1.61,0.5-2.78,0.67-3.5
		l4.18-16.44h9.4V72.1h-6.31V53.09c0-0.55,0.04-1.39,0.11-2.52c0.07-1.13,0.12-1.88,0.15-2.26h-0.22l-0.91,3.52l-5.13,20.27h-6
		l-5.13-20.27l-0.91-3.52h-0.22c0.03,0.38,0.08,1.15,0.15,2.31s0.11,1.99,0.11,2.48V72.1h-6.09V42.25z M197.71,71.55
		c-1.9-0.71-3.42-1.76-4.55-3.15c-1.13-1.39-1.7-3.07-1.7-5.05l0.04-0.96h6.39l-0.04,0.7c0,1.28,0.57,2.29,1.7,3.04
		s2.71,1.13,4.74,1.13c2.15,0,3.7-0.28,4.65-0.85s1.44-1.33,1.44-2.28c0-0.84-0.31-1.54-0.94-2.11c-0.62-0.57-1.41-1.01-2.35-1.35
		c-0.94-0.33-2.24-0.73-3.89-1.2c-2.35-0.67-4.25-1.3-5.7-1.91c-1.45-0.61-2.7-1.51-3.74-2.72c-1.04-1.2-1.57-2.79-1.57-4.76
		c0-2.73,1.1-4.8,3.31-6.22s5.13-2.13,8.79-2.13c3.45,0,6.27,0.73,8.46,2.2c2.19,1.46,3.28,3.66,3.28,6.59v0.52h-6.26v-0.39
		c0-1.1-0.5-1.97-1.5-2.61c-1-0.64-2.36-0.96-4.07-0.96c-1.83,0-3.23,0.25-4.2,0.74c-0.97,0.49-1.46,1.18-1.46,2.04
		c0,0.67,0.29,1.24,0.87,1.72s1.3,0.87,2.17,1.17s2.1,0.67,3.7,1.11c2.38,0.64,4.33,1.27,5.85,1.89s2.83,1.54,3.94,2.76
		c1.1,1.22,1.65,2.81,1.65,4.79c0,3.19-1.14,5.54-3.42,7.05c-2.28,1.51-5.39,2.26-9.33,2.26C201.7,72.62,199.6,72.26,197.71,71.55z
		 M14.04,12.05h4.6v8.64h9.46v-8.64h4.6v21.78h-4.6v-9.18h-9.46v9.18h-4.6V12.05z"/>
	<polyline class="st84" points="227.98,72.1 227.98,88.69 211.39,88.69 	"/>
	<polyline class="st84" points="219.68,31.17 227.98,31.17 227.98,39.47 	"/>
	<polyline class="st84" points="33.39,82.39 25.09,82.39 25.09,74.1 	"/>
	<polyline class="st84" points="1.5,18.09 1.5,1.5 18.09,1.5 	"/>
</g>
</svg>
