<?xml version="1.0" encoding="utf-8"?>
<!-- Generator: Adobe Illustrator 23.0.3, SVG Export Plug-In . SVG Version: 6.00 Build 0)  -->
<svg version="1.1" id="Layer_1" xmlns="http://www.w3.org/2000/svg" xmlns:xlink="http://www.w3.org/1999/xlink" x="0px" y="0px"
	 viewBox="0 0 247.5 30.88" style="enable-background:new 0 0 247.5 30.88;" xml:space="preserve">
<style type="text/css">
	.st0{fill:#FFFFFF;stroke:#F7931E;stroke-miterlimit:10;}
	.st1{opacity:0.3;}
	.st2{fill:none;stroke:#000000;stroke-width:0.75;}
	.st3{fill:none;stroke:#000000;stroke-width:3;stroke-linecap:round;stroke-miterlimit:10;}
	.st4{fill:none;stroke:#000000;stroke-width:2;}
	.st5{fill:none;stroke:#000000;stroke-width:2;stroke-linecap:round;}
	.st6{fill:none;stroke:#000000;stroke-width:0.5;stroke-miterlimit:10;}
	.st7{fill:none;stroke:#000000;stroke-miterlimit:10;}
	.st8{fill:none;stroke:#000000;stroke-width:0.5;stroke-miterlimit:10;stroke-dasharray:10.6527,10.6527;}
	.st9{fill:none;stroke:#000000;stroke-width:0.5;stroke-miterlimit:10;stroke-dasharray:9.5918,9.5918;}
	.st10{fill:none;stroke:#000000;stroke-width:0.5;stroke-miterlimit:10;stroke-dasharray:11.9047,11.9047;}
	.st11{fill:none;stroke:#000000;stroke-width:0.5;stroke-miterlimit:10;stroke-dasharray:11.3762,11.3762;}
	.st12{fill:none;stroke:#000000;stroke-width:0.5;stroke-miterlimit:10;stroke-dasharray:10.8468,10.8468;}
	.st13{fill:none;stroke:#000000;stroke-width:0.5;stroke-miterlimit:10;stroke-dasharray:12.5569,12.5569;}
	.st14{fill:#FFFFFF;stroke:#000000;stroke-width:0.5;stroke-miterlimit:10;}
	.st15{fill:none;stroke:#000000;stroke-width:0.25;stroke-miterlimit:10;}
	.st16{fill:none;stroke:#000000;stroke-width:0.25;stroke-miterlimit:10;stroke-dasharray:10.6527,10.6527;}
	.st17{fill:none;stroke:#000000;stroke-width:0.25;stroke-miterlimit:10;stroke-dasharray:9.5918,9.5918;}
	.st18{fill:none;stroke:#000000;stroke-width:0.25;stroke-miterlimit:10;stroke-dasharray:11.9047,11.9047;}
	.st19{fill:none;stroke:#000000;stroke-width:0.25;stroke-miterlimit:10;stroke-dasharray:11.3762,11.3762;}
	.st20{fill:none;stroke:#000000;stroke-width:0.25;stroke-miterlimit:10;stroke-dasharray:10.8468,10.8468;}
	.st21{fill:none;stroke:#000000;stroke-width:0.25;stroke-miterlimit:10;stroke-dasharray:12.5569,12.5569;}
	.st22{fill:none;stroke:#000000;stroke-width:0.25;stroke-miterlimit:10;stroke-dasharray:11.237,11.237;}
	.st23{fill:none;stroke:#000000;stroke-width:0.25;stroke-miterlimit:10;stroke-dasharray:10.0763,10.0763;}
	.st24{fill:none;stroke:#000000;stroke-width:0.25;stroke-miterlimit:10;stroke-dasharray:10.4635,10.4635;}
	.st25{fill:none;stroke:#000000;stroke-width:0.25;stroke-miterlimit:10;stroke-dasharray:10.2079,10.2079;}
	.st26{fill:none;stroke:#000000;stroke-width:0.25;stroke-miterlimit:10;stroke-dasharray:10.2311,10.2311;}
	.st27{fill:none;stroke:#000000;stroke-width:0.25;stroke-miterlimit:10;stroke-dasharray:10.429,10.429;}
	.st28{fill:none;stroke:#000000;stroke-width:0.25;stroke-miterlimit:10;stroke-dasharray:8.0135,8.0135;}
	.st29{fill:none;stroke:#000000;stroke-width:0.25;stroke-miterlimit:10;stroke-dasharray:12.1894,12.1894;}
	.st30{fill:none;stroke:#000000;stroke-width:0.25;stroke-miterlimit:10;stroke-dasharray:11.7342,11.7342;}
	.st31{fill:none;stroke:#000000;stroke-width:0.25;stroke-miterlimit:10;stroke-dasharray:6.6473,6.6473;}
	.st32{fill:none;stroke:#000000;stroke-width:0.5;}
	.st33{fill:none;stroke:#000000;stroke-width:0.5;stroke-dasharray:13.4871,13.4871;}
	.st34{fill:none;stroke:#000000;stroke-width:0.5;stroke-dasharray:6.0196,6.0196;}
	.st35{fill:none;stroke:#000000;stroke-width:0.5;stroke-dasharray:13.1735,13.1735;}
	.st36{fill:none;stroke:#000000;stroke-width:0.5;stroke-dasharray:13.0961,13.0961;}
	.st37{fill:none;stroke:#000000;stroke-width:0.5;stroke-dasharray:11.2544,11.2544;}
	.st38{fill:none;stroke:#000000;stroke-width:0.5;stroke-dasharray:6.4987,6.4987;}
	.st39{fill:none;stroke:#000000;stroke-width:0.5;stroke-dasharray:7.5023,7.5023;}
	.st40{fill:none;stroke:#000000;stroke-width:0.5;stroke-dasharray:7.1549,7.1549;}
	.st41{clip-path:url(#SVGID_2_);}
	.st42{clip-path:url(#SVGID_4_);}
	.st43{fill:url(#SVGID_7_);}
	.st44{fill:#0000FF;}
	.st45{fill:url(#SVGID_8_);}
	.st46{fill:url(#SVGID_9_);}
	.st47{fill:#341A4F;}
	.st48{fill:url(#SVGID_10_);}
	.st49{fill:#333333;}
	.st50{fill:url(#SVGID_11_);}
	.st51{fill:url(#SVGID_12_);}
	.st52{fill:#7F0602;}
	.st53{fill:url(#SVGID_13_);}
	.st54{fill:url(#SVGID_14_);}
	.st55{fill:url(#SVGID_15_);}
	.st56{fill:url(#SVGID_16_);}
	.st57{fill:url(#SVGID_17_);}
	.st58{fill:url(#SVGID_18_);}
	.st59{fill:url(#SVGID_19_);}
	.st60{fill:url(#SVGID_20_);}
	.st61{fill:url(#SVGID_21_);}
	.st62{fill:url(#SVGID_22_);}
	.st63{fill:url(#SVGID_23_);}
	.st64{fill:url(#SVGID_24_);}
	.st65{fill:url(#SVGID_25_);}
	.st66{fill:url(#SVGID_26_);}
	.st67{fill:url(#SVGID_27_);}
	.st68{fill:url(#SVGID_28_);}
	.st69{fill:url(#SVGID_29_);}
	.st70{fill:url(#SVGID_30_);}
	.st71{fill:none;stroke:#000000;stroke-width:3;stroke-miterlimit:10;}
	.st72{fill:url(#SVGID_31_);}
	.st73{fill:url(#SVGID_32_);}
	.st74{fill:url(#SVGID_33_);}
	.st75{fill:url(#SVGID_34_);}
	.st76{fill:none;stroke:#7F0602;stroke-width:3;stroke-miterlimit:10;}
	.st77{fill:none;stroke:#4777EF;stroke-width:3;stroke-miterlimit:10;}
	.st78{fill:none;stroke:#341A4F;stroke-width:3;stroke-miterlimit:10;}
	.st79{fill:url(#SVGID_35_);}
	.st80{fill:none;stroke:#3C0965;stroke-width:3;stroke-miterlimit:10;}
	.st81{fill:none;stroke:#F6B024;stroke-width:4;stroke-miterlimit:10;}
	.st82{fill:none;stroke:#FBD425;stroke-width:3;stroke-miterlimit:10;}
	.st83{fill:url(#SVGID_36_);}
	.st84{fill:none;stroke:#333333;stroke-width:3;stroke-miterlimit:10;}
	.st85{fill:url(#SVGID_37_);}
	.st86{fill:url(#SVGID_38_);}
	.st87{fill:none;stroke:#000000;stroke-width:0.3663;stroke-miterlimit:10;}
	.st88{fill:#500C6C;}
	.st89{fill:url(#SVGID_39_);}
</style>
<g>
	<path class="st49" d="M88.82,3.07c-1.68-1.7-4.19-2.54-7.53-2.54H67.07v29.84h6.31V20.1h7.48c3.48,0,6.1-0.86,7.85-2.59
		c1.75-1.72,2.63-4.14,2.63-7.24C91.34,7.16,90.5,4.76,88.82,3.07z M83.86,13.57c-0.73,0.78-1.77,1.17-3.13,1.17h-7.35V5.87h7.35
		c1.36,0,2.41,0.38,3.13,1.15c0.72,0.77,1.09,1.85,1.09,3.24C84.95,11.69,84.58,12.79,83.86,13.57z M109.61,0.52h-7.92L90.03,30.36
		h6.53l2.13-5.7h13.57l2.13,5.7h6.87L109.61,0.52z M100.65,19.4l2.83-7.57c0.23-0.61,0.57-1.62,1-3.04
		c0.43-1.42,0.72-2.36,0.87-2.83h0.22c0.15,0.46,0.44,1.41,0.87,2.83c0.44,1.42,0.77,2.44,1,3.04l2.83,7.57H100.65z M144.93,18.23
		c3.48-1.39,5.22-4.18,5.22-8.35c0-2.96-0.84-5.26-2.52-6.9c-1.68-1.64-4.19-2.46-7.53-2.46h-15.83v29.84h6.31V19.23h8.35
		l5.26,11.14h6.83L144.93,18.23z M142.67,12.88c-0.73,0.73-1.77,1.09-3.13,1.09h-8.96V5.87h8.96c1.36,0,2.41,0.35,3.13,1.04
		c0.72,0.7,1.09,1.68,1.09,2.96S143.39,12.15,142.67,12.88z M172.42,0.52h-7.92l-11.66,29.84h6.53l2.13-5.7h13.57l2.13,5.7h6.87
		L172.42,0.52z M163.46,19.4l2.83-7.57c0.23-0.61,0.57-1.62,1-3.04c0.43-1.42,0.72-2.36,0.87-2.83h0.22
		c0.15,0.46,0.44,1.41,0.87,2.83c0.44,1.42,0.77,2.44,1,3.04l2.83,7.57H163.46z M187.08,0.52h9.83l4.18,16.44
		c0.23,0.81,0.5,2.01,0.8,3.59c0.3,1.58,0.5,2.63,0.59,3.15h0.22c0.09-0.55,0.27-1.63,0.54-3.24c0.28-1.61,0.5-2.78,0.67-3.5
		l4.18-16.44h9.4v29.84h-6.31V11.35c0-0.55,0.04-1.39,0.11-2.52c0.07-1.13,0.12-1.88,0.15-2.26h-0.22l-0.91,3.52l-5.13,20.27h-6
		l-5.13-20.27l-0.91-3.52h-0.22c0.03,0.38,0.08,1.15,0.15,2.31c0.07,1.16,0.11,1.99,0.11,2.48v19.01h-6.09V0.52z M228.47,29.82
		c-1.9-0.71-3.42-1.76-4.55-3.15c-1.13-1.39-1.7-3.07-1.7-5.05l0.04-0.96h6.39l-0.04,0.7c0,1.28,0.57,2.29,1.7,3.04
		c1.13,0.75,2.71,1.13,4.74,1.13c2.15,0,3.7-0.28,4.65-0.85s1.44-1.33,1.44-2.28c0-0.84-0.31-1.54-0.94-2.11
		c-0.62-0.57-1.41-1.01-2.35-1.35c-0.94-0.33-2.24-0.73-3.89-1.2c-2.35-0.67-4.25-1.3-5.7-1.91c-1.45-0.61-2.7-1.51-3.74-2.72
		c-1.04-1.2-1.57-2.79-1.57-4.76c0-2.73,1.1-4.8,3.31-6.22S231.41,0,235.06,0c3.45,0,6.27,0.73,8.46,2.2
		c2.19,1.46,3.28,3.66,3.28,6.59v0.52h-6.26V8.92c0-1.1-0.5-1.97-1.5-2.61c-1-0.64-2.36-0.96-4.07-0.96c-1.83,0-3.23,0.25-4.2,0.74
		c-0.97,0.49-1.46,1.17-1.46,2.04c0,0.67,0.29,1.24,0.87,1.72s1.3,0.87,2.17,1.17s2.1,0.67,3.7,1.11c2.38,0.64,4.33,1.27,5.85,1.89
		c1.52,0.62,2.83,1.54,3.94,2.76c1.1,1.22,1.65,2.81,1.65,4.79c0,3.19-1.14,5.54-3.42,7.05c-2.28,1.51-5.39,2.26-9.33,2.26
		C232.46,30.88,230.37,30.53,228.47,29.82z"/>
	<g>
		<g>
			<linearGradient id="SVGID_2_" gradientUnits="userSpaceOnUse" x1="0" y1="15.4429" x2="55.5781" y2="15.4429">
				<stop  offset="0" style="stop-color:#341A4F"/>
				<stop  offset="0.204" style="stop-color:#4777EF"/>
				<stop  offset="0.4067" style="stop-color:#42F787"/>
				<stop  offset="0.6313" style="stop-color:#E0DD37"/>
				<stop  offset="0.8313" style="stop-color:#EF5711"/>
				<stop  offset="1" style="stop-color:#7F0602"/>
			</linearGradient>
			<polygon style="fill:url(#SVGID_2_);" points="0,0.52 6.31,0.52 6.31,12.35 49.27,12.35 49.27,0.52 55.58,0.52 55.58,30.36 
				49.27,30.36 49.27,17.79 6.31,17.79 6.31,30.36 0,30.36 			"/>
		</g>
	</g>
</g>
</svg>
