<?xml version="1.0" encoding="utf-8"?>
<!-- Generator: Adobe Illustrator 23.0.3, SVG Export Plug-In . SVG Version: 6.00 Build 0)  -->
<svg version="1.1" id="Layer_1" xmlns="http://www.w3.org/2000/svg" xmlns:xlink="http://www.w3.org/1999/xlink" x="0px" y="0px"
	 viewBox="0 0 194.34 71.22" style="enable-background:new 0 0 194.34 71.22;" xml:space="preserve">
<style type="text/css">
	.st0{fill:#FFFFFF;stroke:#F7931E;stroke-miterlimit:10;}
	.st1{opacity:0.3;}
	.st2{fill:none;stroke:#000000;stroke-width:0.75;}
	.st3{fill:none;stroke:#000000;stroke-width:3;stroke-linecap:round;stroke-miterlimit:10;}
	.st4{fill:none;stroke:#000000;stroke-width:2;}
	.st5{fill:none;stroke:#000000;stroke-width:2;stroke-linecap:round;}
	.st6{fill:none;stroke:#000000;stroke-width:0.5;stroke-miterlimit:10;}
	.st7{fill:none;stroke:#000000;stroke-miterlimit:10;}
	.st8{fill:none;stroke:#000000;stroke-width:0.5;stroke-miterlimit:10;stroke-dasharray:10.6527,10.6527;}
	.st9{fill:none;stroke:#000000;stroke-width:0.5;stroke-miterlimit:10;stroke-dasharray:9.5918,9.5918;}
	.st10{fill:none;stroke:#000000;stroke-width:0.5;stroke-miterlimit:10;stroke-dasharray:11.9047,11.9047;}
	.st11{fill:none;stroke:#000000;stroke-width:0.5;stroke-miterlimit:10;stroke-dasharray:11.3762,11.3762;}
	.st12{fill:none;stroke:#000000;stroke-width:0.5;stroke-miterlimit:10;stroke-dasharray:10.8468,10.8468;}
	.st13{fill:none;stroke:#000000;stroke-width:0.5;stroke-miterlimit:10;stroke-dasharray:12.5569,12.5569;}
	.st14{fill:#FFFFFF;stroke:#000000;stroke-width:0.5;stroke-miterlimit:10;}
	.st15{fill:none;stroke:#000000;stroke-width:0.25;stroke-miterlimit:10;}
	.st16{fill:none;stroke:#000000;stroke-width:0.25;stroke-miterlimit:10;stroke-dasharray:10.6527,10.6527;}
	.st17{fill:none;stroke:#000000;stroke-width:0.25;stroke-miterlimit:10;stroke-dasharray:9.5918,9.5918;}
	.st18{fill:none;stroke:#000000;stroke-width:0.25;stroke-miterlimit:10;stroke-dasharray:11.9047,11.9047;}
	.st19{fill:none;stroke:#000000;stroke-width:0.25;stroke-miterlimit:10;stroke-dasharray:11.3762,11.3762;}
	.st20{fill:none;stroke:#000000;stroke-width:0.25;stroke-miterlimit:10;stroke-dasharray:10.8468,10.8468;}
	.st21{fill:none;stroke:#000000;stroke-width:0.25;stroke-miterlimit:10;stroke-dasharray:12.5569,12.5569;}
	.st22{fill:none;stroke:#000000;stroke-width:0.25;stroke-miterlimit:10;stroke-dasharray:11.237,11.237;}
	.st23{fill:none;stroke:#000000;stroke-width:0.25;stroke-miterlimit:10;stroke-dasharray:10.0763,10.0763;}
	.st24{fill:none;stroke:#000000;stroke-width:0.25;stroke-miterlimit:10;stroke-dasharray:10.4635,10.4635;}
	.st25{fill:none;stroke:#000000;stroke-width:0.25;stroke-miterlimit:10;stroke-dasharray:10.2079,10.2079;}
	.st26{fill:none;stroke:#000000;stroke-width:0.25;stroke-miterlimit:10;stroke-dasharray:10.2311,10.2311;}
	.st27{fill:none;stroke:#000000;stroke-width:0.25;stroke-miterlimit:10;stroke-dasharray:10.429,10.429;}
	.st28{fill:none;stroke:#000000;stroke-width:0.25;stroke-miterlimit:10;stroke-dasharray:8.0135,8.0135;}
	.st29{fill:none;stroke:#000000;stroke-width:0.25;stroke-miterlimit:10;stroke-dasharray:12.1894,12.1894;}
	.st30{fill:none;stroke:#000000;stroke-width:0.25;stroke-miterlimit:10;stroke-dasharray:11.7342,11.7342;}
	.st31{fill:none;stroke:#000000;stroke-width:0.25;stroke-miterlimit:10;stroke-dasharray:6.6473,6.6473;}
	.st32{fill:none;stroke:#000000;stroke-width:0.5;}
	.st33{fill:none;stroke:#000000;stroke-width:0.5;stroke-dasharray:13.4871,13.4871;}
	.st34{fill:none;stroke:#000000;stroke-width:0.5;stroke-dasharray:6.0196,6.0196;}
	.st35{fill:none;stroke:#000000;stroke-width:0.5;stroke-dasharray:13.1735,13.1735;}
	.st36{fill:none;stroke:#000000;stroke-width:0.5;stroke-dasharray:13.0961,13.0961;}
	.st37{fill:none;stroke:#000000;stroke-width:0.5;stroke-dasharray:11.2544,11.2544;}
	.st38{fill:none;stroke:#000000;stroke-width:0.5;stroke-dasharray:6.4987,6.4987;}
	.st39{fill:none;stroke:#000000;stroke-width:0.5;stroke-dasharray:7.5023,7.5023;}
	.st40{fill:none;stroke:#000000;stroke-width:0.5;stroke-dasharray:7.1549,7.1549;}
	.st41{clip-path:url(#SVGID_2_);}
	.st42{clip-path:url(#SVGID_4_);}
	.st43{fill:url(#SVGID_7_);}
	.st44{fill:#0000FF;}
	.st45{fill:url(#SVGID_8_);}
	.st46{fill:url(#SVGID_9_);}
	.st47{fill:#341A4F;}
	.st48{fill:url(#SVGID_10_);}
	.st49{fill:#333333;}
	.st50{fill:url(#SVGID_11_);}
	.st51{fill:url(#SVGID_12_);}
	.st52{fill:#7F0602;}
	.st53{fill:url(#SVGID_13_);}
	.st54{fill:url(#SVGID_14_);}
	.st55{fill:url(#SVGID_15_);}
	.st56{fill:url(#SVGID_16_);}
	.st57{fill:url(#SVGID_17_);}
	.st58{fill:url(#SVGID_18_);}
	.st59{fill:url(#SVGID_19_);}
	.st60{fill:url(#SVGID_20_);}
	.st61{fill:url(#SVGID_21_);}
	.st62{fill:url(#SVGID_22_);}
	.st63{fill:url(#SVGID_23_);}
	.st64{fill:url(#SVGID_24_);}
	.st65{fill:url(#SVGID_25_);}
	.st66{fill:url(#SVGID_26_);}
	.st67{fill:url(#SVGID_27_);}
	.st68{fill:url(#SVGID_28_);}
	.st69{fill:url(#SVGID_29_);}
	.st70{fill:url(#SVGID_30_);}
	.st71{fill:none;stroke:#000000;stroke-width:3;stroke-miterlimit:10;}
	.st72{fill:url(#SVGID_31_);}
	.st73{fill:url(#SVGID_32_);}
	.st74{fill:url(#SVGID_33_);}
	.st75{fill:url(#SVGID_34_);}
	.st76{fill:none;stroke:#7F0602;stroke-width:3;stroke-miterlimit:10;}
	.st77{fill:none;stroke:#4777EF;stroke-width:3;stroke-miterlimit:10;}
	.st78{fill:none;stroke:#341A4F;stroke-width:3;stroke-miterlimit:10;}
	.st79{fill:url(#SVGID_35_);}
	.st80{fill:none;stroke:#3C0965;stroke-width:3;stroke-miterlimit:10;}
	.st81{fill:none;stroke:#F6B024;stroke-width:4;stroke-miterlimit:10;}
	.st82{fill:none;stroke:#FBD425;stroke-width:3;stroke-miterlimit:10;}
	.st83{fill:url(#SVGID_36_);}
	.st84{fill:none;stroke:#333333;stroke-width:3;stroke-miterlimit:10;}
	.st85{fill:url(#SVGID_37_);}
	.st86{fill:url(#SVGID_38_);}
	.st87{fill:none;stroke:#000000;stroke-width:0.3663;stroke-miterlimit:10;}
	.st88{fill:#500C6C;}
	.st89{fill:url(#SVGID_39_);}
</style>
<g>
	<g>
		<g>
			<path class="st49" d="M27.86,53.62c-1.52,1.98-4.12,2.88-7.81,2.91c-0.77,0-11.06-0.03-11.06-0.03v7.28H3.13V39.46h16.92
				c3.56,0,6.14,0.84,7.53,2.45c1.12,1.24,1.83,3.25,1.83,6.1C29.41,50.49,28.88,52.35,27.86,53.62z M23.06,45.69
				c-0.62-0.93-1.95-1.46-4.21-1.46H8.96v7.41c0,0,9.79,0,9.82,0c2.42,0,3.69-0.5,4.28-1.46c0.34-0.53,0.43-1.24,0.43-2.2
				C23.49,46.96,23.34,46.12,23.06,45.69z"/>
			<path class="st49" d="M34.36,63.78h-6.2l12.86-24.33h7l12.33,24.33h-6.35l-2.6-5.36H37.06L34.36,63.78z M45.33,46.21l-0.96-2.2
				l-0.99,2.2l-3.84,7.5h9.45C49.02,53.71,45.33,46.21,45.33,46.21z"/>
			<path class="st49" d="M88.77,50.77c-0.78,1.27-2.2,2.35-3.94,2.63l7.28,10.38h-6.63L79,54.3h-9.45v9.48h-5.8V39.46h17.32
				c3.69,0,6.1,1.05,7.38,2.7c0.87,1.08,1.3,2.48,1.3,4.4C89.76,48.32,89.42,49.78,88.77,50.77z M83.62,45.38
				c-0.53-0.78-1.43-1.15-3.16-1.15H69.58v5.39H80.8c1.58,0,2.45-0.34,2.82-0.96c0.31-0.5,0.4-1.15,0.4-1.64
				C84.03,46.43,83.93,45.78,83.62,45.38z"/>
			<path class="st49" d="M99.12,63.78h-6.2l12.86-24.33h7l12.33,24.33h-6.35l-2.6-5.36h-14.35L99.12,63.78z M110.09,46.21l-0.96-2.2
				l-0.99,2.2l-3.84,7.5h9.45C113.78,53.71,110.09,46.21,110.09,46.21z"/>
			<path class="st49" d="M154.54,63.78V47.55l-7.59,16.24h-5.76l-7.38-16.24v16.24h-5.58V39.46h7.56l8.37,18.53l8.55-18.53h7.44
				v24.33H154.54z"/>
			<path class="st49" d="M179.12,64.16c-11.03,0-14.41-4.12-14.41-8.21h6.26c0,2.01,2.76,3.53,8.43,3.53c5.64,0,7.13-0.99,7.13-2.6
				c0-1.8-1.12-2.36-6.35-2.94c-1.02-0.09-3.84-0.43-4.9-0.59c-7.44-0.84-10.29-3.04-10.29-6.97c0-4.15,4.18-7.28,13.26-7.28
				c9.86,0,13.64,3.87,13.64,7.9h-6.2c0-2.05-2.32-3.22-7.81-3.22c-5.64,0-6.85,0.77-6.85,2.29c0,1.58,1.24,2.08,7.22,2.79
				c1.36,0.19,4.4,0.53,5.24,0.62c6.32,0.65,9.17,2.94,9.17,7C192.67,61.31,188.33,64.16,179.12,64.16z"/>
		</g>
	</g>
	<linearGradient id="SVGID_2_" gradientUnits="userSpaceOnUse" x1="3.1299" y1="14.9204" x2="191.8896" y2="14.9204">
		<stop  offset="0" style="stop-color:#FDE725"/>
		<stop  offset="0.493" style="stop-color:#ED6924"/>
		<stop  offset="1" style="stop-color:#3C0965"/>
	</linearGradient>
	<path style="fill:url(#SVGID_2_);" d="M3.13,0h6.31v11.83h176.14V0h6.31v29.84h-6.31V17.27H9.44v12.57H3.13V0z"/>
</g>
</svg>
