<?xml version="1.0" encoding="utf-8"?>
<!-- Generator: Adobe Illustrator 23.0.3, SVG Export Plug-In . SVG Version: 6.00 Build 0)  -->
<svg version="1.1" id="Layer_1" xmlns="http://www.w3.org/2000/svg" xmlns:xlink="http://www.w3.org/1999/xlink" x="0px" y="0px"
	 viewBox="0 0 769.57 304.93" style="enable-background:new 0 0 769.57 304.93;" xml:space="preserve">
<style type="text/css">
	.st0{opacity:0.5;}
	.st1{fill:none;stroke:#333333;stroke-width:0.25;stroke-miterlimit:10;}
	.st2{fill:#FFFFFF;stroke:#F7931E;stroke-miterlimit:10;}
	.st3{opacity:0.3;}
	.st4{fill:none;stroke:#000000;stroke-width:0.75;}
	.st5{fill:none;stroke:#000000;stroke-width:3;stroke-linecap:round;stroke-miterlimit:10;}
	.st6{fill:none;stroke:#000000;stroke-width:2;}
	.st7{fill:none;stroke:#000000;stroke-width:2;stroke-linecap:round;}
	.st8{fill:none;stroke:#000000;stroke-width:0.5;stroke-miterlimit:10;}
	.st9{fill:none;stroke:#000000;stroke-miterlimit:10;}
	.st10{fill:none;stroke:#000000;stroke-width:0.5;stroke-miterlimit:10;stroke-dasharray:10.6527,10.6527;}
	.st11{fill:none;stroke:#000000;stroke-width:0.5;stroke-miterlimit:10;stroke-dasharray:9.5918,9.5918;}
	.st12{fill:none;stroke:#000000;stroke-width:0.5;stroke-miterlimit:10;stroke-dasharray:11.9047,11.9047;}
	.st13{fill:none;stroke:#000000;stroke-width:0.5;stroke-miterlimit:10;stroke-dasharray:11.3762,11.3762;}
	.st14{fill:none;stroke:#000000;stroke-width:0.5;stroke-miterlimit:10;stroke-dasharray:10.8468,10.8468;}
	.st15{fill:none;stroke:#000000;stroke-width:0.5;stroke-miterlimit:10;stroke-dasharray:12.5569,12.5569;}
	.st16{fill:#FFFFFF;stroke:#000000;stroke-width:0.5;stroke-miterlimit:10;}
	.st17{fill:none;stroke:#000000;stroke-width:0.25;stroke-miterlimit:10;}
	.st18{fill:none;stroke:#000000;stroke-width:0.25;stroke-miterlimit:10;stroke-dasharray:10.6527,10.6527;}
	.st19{fill:none;stroke:#000000;stroke-width:0.25;stroke-miterlimit:10;stroke-dasharray:9.5918,9.5918;}
	.st20{fill:none;stroke:#000000;stroke-width:0.25;stroke-miterlimit:10;stroke-dasharray:11.9047,11.9047;}
	.st21{fill:none;stroke:#000000;stroke-width:0.25;stroke-miterlimit:10;stroke-dasharray:11.3762,11.3762;}
	.st22{fill:none;stroke:#000000;stroke-width:0.25;stroke-miterlimit:10;stroke-dasharray:10.8468,10.8468;}
	.st23{fill:none;stroke:#000000;stroke-width:0.25;stroke-miterlimit:10;stroke-dasharray:12.5569,12.5569;}
	.st24{fill:none;stroke:#000000;stroke-width:0.25;stroke-miterlimit:10;stroke-dasharray:11.237,11.237;}
	.st25{fill:none;stroke:#000000;stroke-width:0.25;stroke-miterlimit:10;stroke-dasharray:10.0763,10.0763;}
	.st26{fill:none;stroke:#000000;stroke-width:0.25;stroke-miterlimit:10;stroke-dasharray:10.4635,10.4635;}
	.st27{fill:none;stroke:#000000;stroke-width:0.25;stroke-miterlimit:10;stroke-dasharray:10.2079,10.2079;}
	.st28{fill:none;stroke:#000000;stroke-width:0.25;stroke-miterlimit:10;stroke-dasharray:10.2311,10.2311;}
	.st29{fill:none;stroke:#000000;stroke-width:0.25;stroke-miterlimit:10;stroke-dasharray:10.429,10.429;}
	.st30{fill:none;stroke:#000000;stroke-width:0.25;stroke-miterlimit:10;stroke-dasharray:8.0135,8.0135;}
	.st31{fill:none;stroke:#000000;stroke-width:0.25;stroke-miterlimit:10;stroke-dasharray:12.1894,12.1894;}
	.st32{fill:none;stroke:#000000;stroke-width:0.25;stroke-miterlimit:10;stroke-dasharray:11.7342,11.7342;}
	.st33{fill:none;stroke:#000000;stroke-width:0.25;stroke-miterlimit:10;stroke-dasharray:6.6473,6.6473;}
	.st34{fill:none;stroke:#000000;stroke-width:0.5;}
	.st35{fill:none;stroke:#000000;stroke-width:0.5;stroke-dasharray:13.4871,13.4871;}
	.st36{fill:none;stroke:#000000;stroke-width:0.5;stroke-dasharray:6.0196,6.0196;}
	.st37{fill:none;stroke:#000000;stroke-width:0.5;stroke-dasharray:13.1735,13.1735;}
	.st38{fill:none;stroke:#000000;stroke-width:0.5;stroke-dasharray:13.0961,13.0961;}
	.st39{fill:none;stroke:#000000;stroke-width:0.5;stroke-dasharray:11.2544,11.2544;}
	.st40{fill:none;stroke:#000000;stroke-width:0.5;stroke-dasharray:6.4987,6.4987;}
	.st41{fill:none;stroke:#000000;stroke-width:0.5;stroke-dasharray:7.5023,7.5023;}
	.st42{fill:none;stroke:#000000;stroke-width:0.5;stroke-dasharray:7.1549,7.1549;}
	.st43{clip-path:url(#SVGID_2_);}
	.st44{fill:url(#SVGID_3_);}
	.st45{fill:#0000FF;}
	.st46{fill:url(#SVGID_4_);}
	.st47{fill:url(#SVGID_5_);}
	.st48{fill:#341A4F;}
	.st49{fill:url(#SVGID_6_);}
	.st50{fill:#333333;}
	.st51{fill:url(#SVGID_7_);}
	.st52{fill:url(#SVGID_8_);}
	.st53{fill:#7F0602;}
	.st54{fill:url(#SVGID_9_);}
	.st55{fill:url(#SVGID_10_);}
	.st56{fill:url(#SVGID_11_);}
	.st57{fill:url(#SVGID_12_);}
	.st58{fill:url(#SVGID_13_);}
	.st59{fill:url(#SVGID_14_);}
	.st60{fill:url(#SVGID_15_);}
	.st61{fill:url(#SVGID_16_);}
	.st62{fill:url(#SVGID_17_);}
	.st63{fill:url(#SVGID_18_);}
	.st64{fill:url(#SVGID_19_);}
	.st65{fill:url(#SVGID_20_);}
	.st66{fill:url(#SVGID_21_);}
	.st67{fill:url(#SVGID_22_);}
	.st68{fill:url(#SVGID_23_);}
	.st69{fill:url(#SVGID_24_);}
	.st70{fill:url(#SVGID_25_);}
	.st71{fill:url(#SVGID_26_);}
	.st72{fill:none;stroke:#000000;stroke-width:3;stroke-miterlimit:10;}
	.st73{fill:url(#SVGID_27_);}
	.st74{fill:url(#SVGID_28_);}
	.st75{fill:url(#SVGID_29_);}
	.st76{fill:url(#SVGID_30_);}
	.st77{fill:none;stroke:#7F0602;stroke-width:3;stroke-miterlimit:10;}
	.st78{fill:none;stroke:#4777EF;stroke-width:3;stroke-miterlimit:10;}
	.st79{fill:none;stroke:#341A4F;stroke-width:3;stroke-miterlimit:10;}
	.st80{fill:url(#SVGID_31_);}
	.st81{fill:none;stroke:#3C0965;stroke-width:3;stroke-miterlimit:10;}
	.st82{fill:none;stroke:#F6B024;stroke-width:4;stroke-miterlimit:10;}
	.st83{fill:none;stroke:#FBD425;stroke-width:3;stroke-miterlimit:10;}
	.st84{fill:url(#SVGID_32_);}
	.st85{fill:none;stroke:#333333;stroke-width:3;stroke-miterlimit:10;}
	.st86{fill:url(#SVGID_33_);}
	.st87{fill:url(#SVGID_34_);}
	.st88{fill:none;stroke:#000000;stroke-width:0.3663;stroke-miterlimit:10;}
	.st89{fill:#500C6C;}
	.st90{fill:url(#SVGID_35_);}
	.st91{fill:#FFFFFF;}
	.st92{fill:url(#SVGID_36_);}
	.st93{fill:url(#SVGID_37_);}
	.st94{fill:url(#SVGID_38_);}
	.st95{fill:url(#SVGID_39_);}
	.st96{fill:url(#SVGID_40_);}
	.st97{fill:url(#SVGID_41_);}
	.st98{fill:url(#SVGID_42_);}
	.st99{fill:url(#SVGID_43_);}
	.st100{fill:url(#SVGID_44_);}
	.st101{fill:url(#SVGID_45_);}
	.st102{fill:url(#SVGID_46_);}
	.st103{opacity:0.2;}
	.st104{clip-path:url(#SVGID_48_);}
</style>
<g>
	<g>
		<linearGradient id="SVGID_2_" gradientUnits="userSpaceOnUse" x1="-107.5935" y1="102.7453" x2="854.6826" y2="291.5496">
			<stop  offset="0" style="stop-color:#341A4F"/>
			<stop  offset="0.204" style="stop-color:#4777EF"/>
			<stop  offset="0.4067" style="stop-color:#65B787"/>
			<stop  offset="0.6313" style="stop-color:#E0DD37"/>
			<stop  offset="0.7087" style="stop-color:#E6A828"/>
			<stop  offset="0.8313" style="stop-color:#EF5711"/>
			<stop  offset="1" style="stop-color:#7F0602"/>
		</linearGradient>
		<path style="fill:url(#SVGID_2_);" d="M50.14,50.41h15.7v29.45H98.1V50.41h15.7v74.27H98.1V93.4H65.84v31.29h-15.7V50.41z
			 M201.8,209.22c-4.9,6.66-13.44,9.67-25.37,9.92c-2.51,0.13-32.15-0.13-32.15-0.13v34.79h-18.21v-99.23h50.49
			c12.81,0,20.47,3.27,24.74,9.17c3.52,4.65,5.65,12.31,5.65,23.11C206.95,197.28,205.44,204.44,201.8,209.22z M186.98,176.31
			c-2.01-3.77-6.53-5.65-14.07-5.65h-28.64v32.53c0,0,28.01,0,28.39,0c8.29,0,12.31-2.26,14.32-5.65c1.26-2.26,1.63-5.53,1.63-10.43
			C188.61,182.09,188.11,178.32,186.98,176.31z M220.29,253.81H201.7l38.18-99.23h22.73l36.3,99.23h-18.84l-8.79-24.12h-41.83
			L220.29,253.81z M253.45,179.7l-2.51-8.42l-2.51,8.54l-13.19,34.29h30.52L253.45,179.7z M388.88,200.55
			c-3.01,5.28-7.66,8.42-12.94,9.29l23.24,43.96h-20.35l-20.1-40.19h-28.39v40.19h-17.84v-99.23h52.13
			c12.43,0,19.85,4.27,23.74,11.43c2.64,4.4,3.77,9.8,3.77,17.71C392.14,191,390.89,196.78,388.88,200.55z M373.05,176.31
			c-1.88-3.89-5.9-5.78-12.43-5.78h-30.15c0,0,0,27.63,0,27.88h31.65c5.15,0,9.17-1.63,10.68-4.65c0.88-2.14,1.38-5.78,1.38-8.54
			C374.18,181.96,373.8,178.07,373.05,176.31z M424.32,253.81h-18.59l38.18-99.23h22.73l36.3,99.23h-18.84l-8.79-24.12h-41.83
			L424.32,253.81z M457.48,179.7l-2.51-8.42l-2.51,8.54l-13.19,34.29h30.52L457.48,179.7z M601.7,253.81v-70.46l-25.37,70.46h-18.21
			l-24.62-70.46v70.46h-16.96v-99.23h24.87l26,75.87l27.13-75.87h24.12v99.23H601.7z M681.49,255.19
			c-27.51,0-38.69-8.54-42.83-21.23c-1-3.14-1.51-7.79-1.51-10.05h18.59c0,1.63,0.75,4.9,1.51,6.66c3.14,6.66,10.55,9.55,24.24,9.55
			c16.33,0,21.86-5.02,21.86-12.56c0-9.04-5.28-12.06-20.98-15.32c-3.64-0.75-9.55-2.01-14.57-3.01
			c-18.21-3.39-30.02-12.56-30.02-28.39c0-16.08,12.56-27.51,40.7-27.51c23.61,0,35.04,8.29,39.94,20.85
			c1.13,3.14,2.14,6.78,2.14,9.29h-18.72c0-1.38-0.75-3.64-1.51-5.28c-3.01-6.41-9.17-9.67-22.36-9.67
			c-16.83,0-21.23,4.65-21.23,11.18c0,7.91,6.91,11.18,22.23,14.32c4.65,0.88,10.3,2.26,13.94,3.01
			c18.84,3.89,29.39,12.06,29.39,28.64C722.31,243.13,709.12,255.19,681.49,255.19z"/>
		<g>
			<polygon class="st50" points="769.57,304.93 707.87,304.93 707.87,294.7 759.34,294.7 759.34,243.23 769.57,243.23 			"/>
		</g>
		<g>
			<polygon class="st50" points="769.57,137.1 759.34,137.1 759.34,113.92 736.16,113.92 736.16,103.69 769.57,103.69 			"/>
		</g>
		<g>
			<polygon class="st50" points="109.3,303.68 75.89,303.68 75.89,270.27 86.12,270.27 86.12,293.45 109.3,293.45 			"/>
		</g>
		<g>
			<polygon class="st50" points="10.23,61.7 0,61.7 0,0 61.7,0 61.7,10.23 10.23,10.23 			"/>
		</g>
	</g>
</g>
</svg>
